<svg xmlns="http://www.w3.org/2000/svg" xml:space="preserve" viewBox="0 0 512 512"><path d="M203.1 322.4V178.5l138.3 72.2zm303.8-168.8s-5-35.3-20.3-50.8c-19.5-20.4-41.3-20.5-51.3-21.7-71.6-5.2-179.1-5.2-179.1-5.2h-.2s-107.5 0-179.1 5.2c-10 1.2-31.8 1.3-51.3 21.7-15.3 15.5-20.3 50.8-20.3 50.8S0 195.1 0 236.5v38.8c0 41.4 5.1 82.9 5.1 82.9s5 35.3 20.3 50.8c19.5 20.4 45.1 19.8 56.5 21.9 41 3.9 174.1 5.1 174.1 5.1s107.6-.2 179.2-5.3c10-1.2 31.8-1.3 51.3-21.7 15.3-15.5 20.3-50.8 20.3-50.8s5.1-41.4 5.1-82.9v-38.8c.1-41.4-5-82.9-5-82.9" style="fill-rule:evenodd;clip-rule:evenodd;fill:#cd201f"/></svg>